<svg width="320" height="183" viewBox="0 0 320 183" fill="none" xmlns="http://www.w3.org/2000/svg">
<rect width="320" height="182.571" rx="10" fill="#00A88B"/>
<mask id="mask0" mask-type="alpha" maskUnits="userSpaceOnUse" x="0" y="0" width="320" height="182">
<rect width="320" height="182" rx="10" fill="#6A6DCD"/>
</mask>
<g mask="url(#mask0)">
<path d="M60.203 75.6652C63.1626 75.6652 65.5578 78.0604 65.5578 81.0201C65.5578 83.9797 63.1626 86.3749 60.203 86.3749C33.9016 86.3749 10.1022 75.7262 -7.11173 58.5123C-24.3409 41.2832 -34.9998 17.4838 -34.9998 -8.79728C-34.9998 -35.0834 -24.3409 -58.8828 -7.11173 -76.112C10.1174 -93.3411 33.9168 -104 60.203 -104C86.484 -104 110.283 -93.3411 127.513 -76.112C144.726 -58.8981 155.375 -35.0987 155.375 -8.79728C155.375 -5.83761 152.975 -3.44241 150.02 -3.44241C147.061 -3.44241 144.665 -5.83761 144.665 -8.79728C144.665 -32.1034 135.207 -53.2127 119.91 -68.5094C104.629 -83.7858 83.5142 -93.2394 60.1979 -93.2394C36.8765 -93.2394 15.7672 -83.7858 0.485771 -68.5094C-14.7906 -53.2279 -24.2443 -32.1136 -24.2443 -8.79728C-24.2443 14.519 -14.7906 35.6283 0.485771 50.9148C15.7825 66.2065 36.8917 75.6703 60.1979 75.6703L60.203 75.6652Z" fill="#03A589"/>
<path d="M60.203 55.6795C63.1678 55.6795 65.5782 58.09 65.5782 61.0547C65.5782 64.0246 63.1678 66.4299 60.203 66.4299C39.4243 66.4299 20.6187 58.0086 7.00013 44.3951C-6.61334 30.7816 -15.0347 11.971 -15.0347 -8.80267C-15.0347 -29.5814 -6.61334 -48.387 7.00013 -62.0055C20.6136 -75.619 39.4243 -84.0403 60.203 -84.0403C80.9766 -84.0403 99.7822 -75.619 113.401 -62.0055C127.014 -48.3921 135.436 -29.5814 135.436 -8.80267C135.436 -5.83792 133.03 -3.42747 130.06 -3.42747C127.096 -3.42747 124.685 -5.83792 124.685 -8.80267C124.685 -26.6116 117.469 -42.7321 105.798 -54.3979C94.1273 -66.0687 78.0068 -73.2899 60.203 -73.2899C42.3941 -73.2899 26.2736 -66.0738 14.6078 -54.3979C2.93694 -42.7321 -4.28425 -26.6065 -4.28425 -8.80267C-4.28425 9.0062 2.93186 25.1217 14.6078 36.7925C26.2736 48.4583 42.3992 55.6795 60.203 55.6795Z" fill="#03A589"/>
<path d="M60.2022 35.721C63.167 35.721 65.5775 38.1314 65.5775 41.1013C65.5775 44.066 63.167 46.4765 60.2022 46.4765C44.936 46.4765 31.1192 40.2927 21.1163 30.2848C11.1185 20.287 4.92456 6.45993 4.92456 -8.7961C4.92456 -24.0623 11.1134 -37.8792 21.1163 -47.8821C31.1192 -57.8798 44.9411 -64.0738 60.2022 -64.0738C75.4634 -64.0738 89.2853 -57.8849 99.2831 -47.8821C109.286 -37.8792 115.475 -24.0572 115.475 -8.7961C115.475 -5.83135 113.064 -3.4209 110.1 -3.4209C107.13 -3.4209 104.719 -5.83135 104.719 -8.7961C104.719 -21.0925 99.7357 -32.2243 91.6805 -40.2795C83.6253 -48.3347 72.4935 -53.3183 60.2022 -53.3183C47.9059 -53.3183 36.7741 -48.3347 28.7189 -40.2795C20.6637 -32.2243 15.6801 -21.0925 15.6801 -8.7961C15.6801 3.50026 20.6637 14.627 28.7189 22.6822C36.7741 30.7374 47.9059 35.721 60.2022 35.721Z" fill="#03A589"/>
<path d="M60.2022 15.7607C63.167 15.7607 65.5774 18.1711 65.5774 21.1359C65.5774 24.1057 63.167 26.5162 60.2022 26.5162C50.4485 26.5162 41.6204 22.5649 35.2281 16.1726C28.8409 9.78541 24.8845 0.952179 24.8845 -8.79642C24.8845 -18.5501 28.8409 -27.3783 35.2281 -33.7705C41.6204 -40.1577 50.4536 -44.1141 60.2022 -44.1141C69.9559 -44.1141 78.7841 -40.1577 85.1713 -33.7705C91.5635 -27.3783 95.5148 -18.545 95.5148 -8.79642C95.5148 -5.83167 93.1044 -3.42122 90.1346 -3.42122C87.1698 -3.42122 84.7593 -5.83167 84.7593 -8.79642C84.7593 -15.5803 82.0082 -21.7234 77.5636 -26.168C73.1241 -30.6125 66.981 -33.3637 60.1971 -33.3637C53.4133 -33.3637 47.2702 -30.6125 42.8256 -26.168C38.381 -21.7234 35.6299 -15.5854 35.6299 -8.79642C35.6299 -2.01766 38.381 4.13051 42.8256 8.57002C47.2702 13.0146 53.4082 15.7658 60.1971 15.7658L60.2022 15.7607Z" fill="#03A589"/>
<path d="M60.2027 -4.20012C63.1675 -4.20012 65.5779 -1.78966 65.5779 1.17509C65.5779 4.14494 63.1675 6.55538 60.2027 6.55538C55.9615 6.55538 52.117 4.83146 49.3404 2.05486C49.2235 1.93789 49.1167 1.81584 49.0099 1.68871C46.4316 -1.05737 44.845 -4.74934 44.845 -8.80236C44.845 -13.0283 46.5638 -16.8626 49.3404 -19.6392L49.3658 -19.6647C52.1424 -22.4413 55.9768 -24.1601 60.2027 -24.1601C64.4286 -24.1601 68.2579 -22.4413 71.0345 -19.6647L71.0497 -19.6494L71.0599 -19.6647C73.8365 -16.8881 75.5605 -13.0435 75.5605 -8.80236C75.5605 -5.8376 73.15 -3.42715 70.1802 -3.42715C67.2154 -3.42715 64.8049 -5.8376 64.8049 -8.80236C64.8049 -10.0737 64.2913 -11.2281 63.4573 -12.057L63.4726 -12.0671C62.6386 -12.8961 61.4893 -13.4097 60.2078 -13.4097C58.9263 -13.4097 57.7719 -12.8961 56.943 -12.0671C56.1141 -11.2382 55.6005 -10.0839 55.6005 -8.80236C55.6005 -7.61747 56.0378 -6.53938 56.7599 -5.7308L56.9481 -5.55282C57.777 -4.71883 58.9314 -4.2052 60.2027 -4.2052V-4.20012Z" fill="#03A589"/>
<path d="M244.44 -8.79732C244.44 -11.7672 246.85 -14.1776 249.82 -14.1776C252.785 -14.1776 255.195 -11.7672 255.195 -8.79732C255.195 17.4888 244.542 41.2831 227.312 58.5123C210.099 75.7262 186.299 86.3749 159.998 86.3749V86.4003C158.248 86.4003 156.372 86.3342 154.389 86.2223C152.451 86.1054 150.58 85.9426 148.785 85.7341C145.84 85.3985 143.725 82.7338 144.06 79.7894C144.396 76.845 147.061 74.7294 150.005 75.0651C151.719 75.2685 153.397 75.4211 155.019 75.5126C156.535 75.6041 158.192 75.6499 159.998 75.6499V75.6702C183.299 75.6702 204.413 66.2115 219.71 50.9199C234.986 35.6435 244.44 14.5241 244.44 -8.79224V-8.79732ZM76.1404 1.20046C76.4761 4.14996 74.3606 6.80452 71.4162 7.14015C68.4717 7.47578 65.8121 5.36027 65.4765 2.41586C65.2629 0.620732 65.1002 -1.24558 64.9832 -3.18818C64.8662 -5.17147 64.8103 -7.04796 64.8103 -8.79224C64.8103 -11.7621 67.2208 -14.1725 70.1855 -14.1725C73.1553 -14.1725 75.5658 -11.7621 75.5658 -8.79224C75.5658 -6.99202 75.6116 -5.3342 75.698 -3.81877C75.7946 -2.18637 75.9472 -0.518384 76.1455 1.20046H76.1404Z" fill="#03A589"/>
<path d="M224.479 -8.79638C224.479 -11.7662 226.89 -14.1767 229.86 -14.1767C232.824 -14.1767 235.235 -11.7662 235.235 -8.79638C235.235 11.9773 226.814 30.7829 213.2 44.4014C199.587 58.0149 180.771 66.4362 159.997 66.4362C157.165 66.4362 154.317 66.2684 151.469 65.948C148.616 65.6276 145.809 65.1394 143.053 64.5038C140.164 63.8427 138.359 60.9644 139.02 58.0759C139.681 55.1874 142.565 53.3821 145.448 54.0432C147.797 54.5823 150.198 54.9942 152.644 55.2739C155.008 55.5434 157.46 55.6807 160.002 55.6807C177.811 55.6807 193.932 48.4646 205.597 36.7937C217.263 25.1229 224.484 9.00232 224.484 -8.80147L224.479 -8.79638ZM97.1525 5.75279C97.8136 8.64127 96.0083 11.5196 93.1198 12.1807C90.2263 12.8418 87.353 11.0365 86.692 8.14798C86.0563 5.39173 85.5732 2.58462 85.2477 -0.273345C84.9273 -3.12622 84.7595 -5.96893 84.7595 -8.80147C84.7595 -11.7713 87.17 -14.1818 90.1347 -14.1818C93.1046 -14.1818 95.515 -11.7713 95.515 -8.80147C95.515 -6.26388 95.6523 -3.81274 95.9219 -1.44806C96.1965 0.997993 96.6084 3.40336 97.1525 5.75279Z" fill="#03A589"/>
<path d="M204.54 -8.67433C204.469 -11.634 206.813 -14.0851 209.773 -14.1563C212.733 -14.2275 215.184 -11.8832 215.255 -8.9286L215.286 -7.68269C215.286 6.92241 209.153 20.302 199.323 30.1116C189.544 39.8653 176.067 46.0846 161.315 46.4406L159.998 46.4711C144.731 46.4711 130.915 40.2874 120.917 30.2794C110.914 20.2816 104.72 6.45457 104.72 -8.80147C104.72 -11.7713 107.13 -14.1818 110.1 -14.1818C113.065 -14.1818 115.475 -11.7713 115.475 -8.80147C115.475 3.4949 120.459 14.6216 128.514 22.6768C136.569 30.7371 147.701 35.7156 159.998 35.7156C160.872 35.7156 160.893 35.7309 161.045 35.7258H161.066C172.965 35.441 183.848 30.4116 191.766 22.509C199.633 14.6623 204.54 3.96783 204.54 -7.68269C204.54 -8.53703 204.55 -8.47092 204.545 -8.67942L204.54 -8.67433Z" fill="#03A589"/>
<path d="M184.56 -8.79732C184.56 -11.7672 186.965 -14.1776 189.935 -14.1776C192.9 -14.1776 195.31 -11.7672 195.31 -8.79732C195.31 0.956371 191.359 9.77944 184.967 16.1717C178.58 22.5589 169.746 26.5153 159.998 26.5153C150.244 26.5153 141.416 22.5589 135.029 16.1717C128.636 9.77944 124.685 0.951286 124.685 -8.79732C124.685 -11.7672 127.095 -14.1776 130.06 -14.1776C133.03 -14.1776 135.435 -11.7672 135.435 -8.79732C135.435 -2.01855 138.187 4.12454 142.631 8.56913C147.076 13.0137 153.214 15.7649 160.003 15.7649C166.787 15.7649 172.93 13.0137 177.374 8.56913C181.819 4.12454 184.57 -2.01347 184.57 -8.79732H184.56Z" fill="#03A589"/>
<path d="M164.6 -8.79732C164.6 -11.7672 167.01 -14.1776 169.98 -14.1776C172.945 -14.1776 175.355 -11.7672 175.355 -8.79732C175.355 -4.56122 173.636 -0.716708 170.855 2.05989C168.078 4.83649 164.239 6.56042 159.997 6.56042C155.761 6.56042 151.917 4.83649 149.14 2.05989C149.018 1.94293 148.911 1.82088 148.81 1.69374C146.226 -1.05234 144.64 -4.7443 144.64 -8.79732C144.64 -11.7672 147.05 -14.1776 150.015 -14.1776C152.985 -14.1776 155.395 -11.7672 155.395 -8.79732C155.395 -7.61243 155.832 -6.53434 156.55 -5.72577L156.738 -5.54778C157.572 -4.71379 158.721 -4.20017 159.992 -4.20017C161.264 -4.20017 162.413 -4.71379 163.247 -5.54778C164.076 -6.37669 164.589 -7.52598 164.589 -8.79732H164.6Z" fill="#03A589"/>
<path d="M60.2023 6.55494C57.2325 6.55494 54.822 4.14449 54.822 1.17465C54.822 -1.7901 57.2325 -4.20056 60.2023 -4.20056C86.4885 -4.20056 110.283 6.45324 127.512 23.6824C144.726 40.8963 155.375 64.6957 155.375 90.9971H155.4C155.4 92.7465 155.334 94.6229 155.222 96.6062C155.105 98.5437 154.942 100.415 154.734 102.21C154.398 105.155 151.733 107.27 148.789 106.935C145.845 106.599 143.729 103.934 144.065 100.99C144.268 99.276 144.421 97.5979 144.512 95.9756C144.604 94.4602 144.65 92.8024 144.65 90.9971H144.67C144.67 67.691 135.211 46.5817 119.92 31.285C104.643 16.0086 83.5237 6.55494 60.2074 6.55494H60.2023ZM70.2001 174.854C73.1496 174.519 75.8041 176.634 76.1398 179.579C76.4754 182.523 74.3599 185.183 71.4155 185.518C69.6204 185.732 67.7541 185.895 65.8115 186.012C63.8282 186.129 61.9517 186.185 60.2074 186.185C57.2376 186.185 54.8271 183.774 54.8271 180.809C54.8271 177.84 57.2376 175.429 60.2074 175.429C62.0076 175.429 63.6654 175.383 65.1809 175.297C66.8133 175.2 68.4812 175.048 70.2001 174.849V174.854Z" fill="#03A589"/>
<path d="M60.2025 26.5159C57.2327 26.5159 54.8222 24.1055 54.8222 21.1356C54.8222 18.1709 57.2327 15.7604 60.2025 15.7604C80.9762 15.7604 99.7818 24.1868 113.4 37.7952C127.014 51.4087 135.435 70.2244 135.435 90.9981C135.435 93.8306 135.267 96.6784 134.947 99.5262C134.627 102.379 134.138 105.186 133.503 107.942C132.842 110.831 129.963 112.636 127.075 111.975C124.186 111.314 122.381 108.431 123.042 105.547C123.581 103.198 123.993 100.798 124.273 98.3515C124.542 95.9868 124.68 93.5357 124.68 90.993C124.68 73.1841 117.463 57.0636 105.793 45.3978C94.1218 33.732 78.0012 26.5108 60.1974 26.5108L60.2025 26.5159ZM74.7517 153.843C77.6402 153.182 80.5185 154.987 81.1796 157.875C81.8407 160.769 80.0354 163.642 77.1469 164.303C74.3906 164.939 71.5835 165.422 68.7256 165.748C65.8727 166.068 63.03 166.236 60.1974 166.236C57.2276 166.236 54.8171 163.825 54.8171 160.861C54.8171 157.891 57.2276 155.48 60.1974 155.48C62.735 155.48 65.1862 155.343 67.5508 155.073C69.9969 154.799 72.4023 154.387 74.7517 153.843Z" fill="#03A589"/>
<path d="M60.3246 46.4555C57.3649 46.5267 54.9138 44.1824 54.8426 41.2227C54.7714 38.263 57.1157 35.8119 60.0703 35.7407L61.3162 35.7102C75.9213 35.7102 89.3009 41.8431 99.1105 51.6731C108.864 61.4522 115.084 74.9283 115.44 89.6809L115.47 90.998C115.47 106.264 109.286 120.081 99.2783 130.079C89.2754 140.082 75.4535 146.276 60.1974 146.276C57.2276 146.276 54.8171 143.865 54.8171 140.895C54.8171 137.931 57.2276 135.52 60.1974 135.52C72.4938 135.52 83.6205 130.537 91.6757 122.481C99.736 114.426 104.715 103.294 104.715 90.998C104.715 90.1234 104.73 90.103 104.725 89.9505V89.9301C104.44 78.0304 99.4105 67.1478 91.5079 59.2299C83.6612 51.3629 72.9667 46.4555 61.3162 46.4555C60.4619 46.4555 60.528 46.4453 60.3195 46.4504L60.3246 46.4555Z" fill="#03A589"/>
<path d="M60.2023 66.4301C57.2325 66.4301 54.822 64.0247 54.822 61.0549C54.822 58.0901 57.2325 55.6797 60.2023 55.6797C69.956 55.6797 78.7791 59.631 85.1713 66.0233C91.5585 72.4105 95.5149 81.2437 95.5149 90.9923C95.5149 100.746 91.5585 109.574 85.1713 115.961C78.7791 122.354 69.9509 126.305 60.2023 126.305C57.2325 126.305 54.822 123.894 54.822 120.93C54.822 117.96 57.2325 115.555 60.2023 115.555C66.9811 115.555 73.1242 112.803 77.5688 108.359C82.0134 103.914 84.7645 97.7762 84.7645 90.9872C84.7645 84.2034 82.0134 78.0603 77.5688 73.6157C73.1242 69.1711 66.9862 66.4199 60.2023 66.4199V66.4301Z" fill="#03A589"/>
<path d="M60.2023 86.3947C57.2325 86.3947 54.822 83.9843 54.822 81.0144C54.822 78.0497 57.2325 75.6392 60.2023 75.6392C64.4282 75.6392 68.2575 77.3581 71.0341 80.1398L71.0494 80.1499L71.0595 80.1398C73.8361 82.9164 75.5601 86.7609 75.5601 90.997C75.5601 95.2381 73.8361 99.0776 71.0595 101.854C68.2829 104.636 64.4384 106.355 60.2023 106.355C57.2325 106.355 54.822 103.944 54.822 100.979C54.822 98.0096 57.2325 95.5992 60.2023 95.5992C61.4737 95.5992 62.6229 95.0856 63.4519 94.2567C64.2858 93.4227 64.7995 92.2734 64.7995 91.002C64.7995 89.7307 64.2858 88.5814 63.4519 87.7474L63.462 87.7373C62.6331 86.9134 61.4838 86.3998 60.2023 86.3998V86.3947Z" fill="#03A589"/>
<path d="M175.33 -8.79728C175.33 -5.83761 172.934 -3.44241 169.975 -3.44241C167.015 -3.44241 164.62 -5.83761 164.62 -8.79728C164.62 -35.0987 175.269 -58.8981 192.482 -76.112C209.712 -93.3411 233.511 -104 259.792 -104C286.078 -104 309.878 -93.3411 327.107 -76.112C344.336 -58.8828 354.995 -35.0834 354.995 -8.79728C354.995 17.4838 344.336 41.2832 327.107 58.5123C309.893 75.7262 286.094 86.3749 259.792 86.3749C256.832 86.3749 254.437 83.9746 254.437 81.0201C254.437 78.0604 256.832 75.6652 259.792 75.6652C283.098 75.6652 304.207 66.2065 319.504 50.9097C334.781 35.6283 344.234 14.5139 344.234 -8.80237C344.234 -32.1238 334.781 -53.233 319.504 -68.5145C304.223 -83.7908 283.108 -93.2445 259.792 -93.2445C236.476 -93.2445 215.367 -83.7908 200.08 -68.5145C184.788 -53.2178 175.325 -32.1085 175.325 -8.80237L175.33 -8.79728Z" fill="#03A589"/>
<path d="M195.315 -8.79705C195.315 -5.8323 192.905 -3.42185 189.94 -3.42185C186.97 -3.42185 184.565 -5.8323 184.565 -8.79705C184.565 -29.5758 192.986 -48.3814 206.6 -61.9999C220.213 -75.6134 239.024 -84.0347 259.798 -84.0347C280.576 -84.0347 299.382 -75.6134 313 -61.9999C326.614 -48.3865 335.035 -29.5758 335.035 -8.79705C335.035 11.9766 326.614 30.7822 313 44.4007C299.387 58.0142 280.576 66.4355 259.798 66.4355C256.833 66.4355 254.422 64.0302 254.422 61.0603C254.422 58.0956 256.833 55.6851 259.798 55.6851C277.606 55.6851 293.727 48.469 305.398 36.7981C317.064 25.1273 324.285 9.00674 324.285 -8.79705C324.285 -26.6059 317.069 -42.7265 305.398 -54.3923C293.727 -66.0631 277.606 -73.2843 259.798 -73.2843C241.994 -73.2843 225.873 -66.0682 214.202 -54.3923C202.537 -42.7265 195.315 -26.6008 195.315 -8.79705Z" fill="#03A589"/>
<path d="M215.276 -8.7961C215.276 -5.83135 212.865 -3.4209 209.895 -3.4209C206.93 -3.4209 204.52 -5.83135 204.52 -8.7961C204.52 -24.0623 210.704 -37.8792 220.712 -47.8821C230.71 -57.8798 244.537 -64.0738 259.793 -64.0738C275.059 -64.0738 288.876 -57.8849 298.879 -47.8821C308.881 -37.8792 315.07 -24.0572 315.07 -8.7961C315.07 6.46501 308.881 20.287 298.879 30.2848C288.876 40.2876 275.054 46.4765 259.793 46.4765C256.828 46.4765 254.417 44.066 254.417 41.1013C254.417 38.1314 256.828 35.721 259.793 35.721C272.089 35.721 283.221 30.7374 291.276 22.6822C299.331 14.627 304.315 3.49517 304.315 -8.7961C304.315 -21.0925 299.331 -32.2243 291.276 -40.2795C283.221 -48.3347 272.089 -53.3183 259.793 -53.3183C247.496 -53.3183 236.37 -48.3347 228.314 -40.2795C220.259 -32.2243 215.276 -21.0925 215.276 -8.7961Z" fill="#03A589"/>
<path d="M235.235 -8.79642C235.235 -5.83167 232.825 -3.42122 229.86 -3.42122C226.89 -3.42122 224.48 -5.83167 224.48 -8.79642C224.48 -18.5501 228.436 -27.3783 234.824 -33.7705C241.216 -40.1577 250.044 -44.1141 259.793 -44.1141C269.546 -44.1141 278.374 -40.1577 284.767 -33.7705C291.154 -27.3783 295.11 -18.545 295.11 -8.79642C295.11 0.957264 291.154 9.78541 284.767 16.1726C278.374 22.5649 269.541 26.5162 259.793 26.5162C256.828 26.5162 254.417 24.1057 254.417 21.1359C254.417 18.1711 256.828 15.7607 259.793 15.7607C266.576 15.7607 272.72 13.0095 277.164 8.56493C281.609 4.12543 284.36 -2.01767 284.36 -8.80152C284.36 -15.5854 281.609 -21.7285 277.164 -26.173C272.72 -30.6176 266.582 -33.3688 259.793 -33.3688C253.014 -33.3688 246.871 -30.6176 242.426 -26.173C237.982 -21.7285 235.23 -15.5904 235.23 -8.80152L235.235 -8.79642Z" fill="#03A589"/>
<path d="M255.195 -8.79686C255.195 -5.8321 252.784 -3.42165 249.82 -3.42165C246.85 -3.42165 244.439 -5.8321 244.439 -8.79686C244.439 -13.0228 246.163 -16.8571 248.94 -19.6337L248.965 -19.6592C251.742 -22.4357 255.576 -24.1546 259.797 -24.1546C264.023 -24.1546 267.857 -22.4357 270.634 -19.6592L270.644 -19.6439L270.659 -19.6592C273.436 -16.8826 275.155 -13.038 275.155 -8.79686C275.155 -4.56076 273.436 -0.716249 270.659 2.06035C267.883 4.83695 264.038 6.56088 259.797 6.56088C256.832 6.56088 254.422 4.15043 254.422 1.18059C254.422 -1.78417 256.832 -4.19463 259.797 -4.19463C261.073 -4.19463 262.223 -4.70824 263.052 -5.54224C263.886 -6.37115 264.399 -7.52044 264.399 -8.79177C264.399 -10.0631 263.886 -11.2175 263.052 -12.0464L263.062 -12.0566C262.233 -12.8855 261.078 -13.3991 259.797 -13.3991C258.515 -13.3991 257.366 -12.8855 256.532 -12.0566C255.708 -11.2277 255.195 -10.0733 255.195 -8.79177V-8.79686Z" fill="#03A589"/>
<path d="M259.792 -4.20056C262.762 -4.20056 265.172 -1.7901 265.172 1.17465C265.172 4.14449 262.762 6.55494 259.792 6.55494C257.992 6.55494 256.334 6.60071 254.818 6.68716C253.186 6.78378 251.518 6.93634 249.799 7.13467C246.85 7.4703 244.195 5.3548 243.859 2.41039C243.524 -0.534028 245.639 -3.19366 248.584 -3.52929C250.379 -3.74288 252.245 -3.90561 254.188 -4.02257C256.171 -4.13953 258.048 -4.19548 259.792 -4.19548V-4.20056ZM165.266 79.7788C165.601 76.8344 168.266 74.7189 171.21 75.0545C174.155 75.3902 176.27 78.0549 175.935 80.9993C175.731 82.7131 175.579 84.3912 175.487 86.0134C175.396 87.5289 175.35 89.1867 175.35 90.992C175.35 114.313 184.803 135.423 200.08 150.704C215.371 165.996 236.486 175.46 259.792 175.46V175.434C262.762 175.434 265.172 177.845 265.172 180.814C265.172 183.779 262.762 186.19 259.792 186.19V186.169C233.496 186.164 209.696 175.521 192.482 158.307C175.253 141.078 164.594 117.278 164.594 90.992C164.594 89.2426 164.66 87.3661 164.772 85.3829C164.889 83.4454 165.052 81.574 165.26 79.7788H165.266Z" fill="#03A589"/>
<path d="M259.792 15.7604C262.762 15.7604 265.173 18.1709 265.173 21.1356C265.173 24.1055 262.762 26.5159 259.792 26.5159C257.255 26.5159 254.804 26.6532 252.439 26.9227C249.993 27.1974 247.588 27.6093 245.238 28.1534C242.35 28.8145 239.471 27.0092 238.81 24.1207C238.149 21.2272 239.954 18.3539 242.843 17.6928C245.599 17.0572 248.406 16.5741 251.264 16.2486C254.117 15.9282 256.96 15.7604 259.792 15.7604ZM186.492 74.0537C187.153 71.1652 190.032 69.3599 192.92 70.021C195.809 70.6821 197.614 73.5655 196.953 76.4489C196.414 78.7983 196.002 81.1986 195.722 83.6447C195.453 86.0093 195.315 88.4605 195.315 91.0032C195.315 108.812 202.531 124.933 214.202 136.598C225.873 148.264 241.994 155.485 259.798 155.485C262.767 155.485 265.178 157.896 265.178 160.866C265.178 163.83 262.767 166.241 259.798 166.241C239.024 166.241 220.218 157.819 206.6 144.206C192.986 130.593 184.565 111.777 184.565 91.0032C184.565 88.1706 184.733 85.3228 185.053 82.475C185.374 79.6222 185.862 76.8151 186.497 74.0588L186.492 74.0537Z" fill="#03A589"/>
<path d="M259.925 35.7399C262.885 35.8111 265.224 38.2622 265.153 41.2219C265.081 44.1816 262.63 46.5259 259.671 46.4547C259.462 46.4496 259.528 46.4598 258.674 46.4598C247.018 46.4598 236.329 51.3671 228.482 59.2342C220.585 67.152 215.55 78.0347 215.265 89.9344V89.9547C215.26 90.1073 215.276 90.1276 215.276 91.0023C215.276 103.299 220.259 114.43 228.314 122.486C236.37 130.541 247.501 135.525 259.793 135.525C262.762 135.525 265.173 137.935 265.173 140.9C265.173 143.87 262.762 146.28 259.793 146.28C244.532 146.28 230.715 140.091 220.712 130.083C210.709 120.085 204.52 106.263 204.52 91.0023L204.551 89.6852C204.907 74.9326 211.126 61.4565 220.88 51.6774C230.684 41.8474 244.069 35.7144 258.674 35.7144L259.92 35.745L259.925 35.7399Z" fill="#03A589"/>
<path d="M259.793 55.6797C262.762 55.6797 265.173 58.0901 265.173 61.0549C265.173 64.0247 262.762 66.4301 259.793 66.4301C253.014 66.4301 246.871 69.1813 242.426 73.6259C237.982 78.0705 235.23 84.2085 235.23 90.9974C235.23 97.7813 237.982 103.924 242.426 108.369C246.871 112.814 253.009 115.565 259.793 115.565C262.762 115.565 265.173 117.97 265.173 120.94C265.173 123.905 262.762 126.315 259.793 126.315C250.039 126.315 241.216 122.364 234.824 115.972C228.436 109.584 224.48 100.751 224.48 91.0025C224.48 81.2488 228.436 72.4206 234.824 66.0334C241.216 59.6412 250.044 55.6899 259.793 55.6899V55.6797Z" fill="#03A589"/>
<path d="M259.793 75.6387C262.762 75.6387 265.173 78.0492 265.173 81.0139C265.173 83.9838 262.762 86.3942 259.793 86.3942C258.511 86.3942 257.362 86.9078 256.533 87.7316L256.543 87.7418C255.694 88.5911 255.175 89.7404 255.175 90.9964C255.175 92.2525 255.694 93.4069 256.543 94.2511C257.372 95.08 258.521 95.5936 259.793 95.5936C262.762 95.5936 265.173 98.004 265.173 100.974C265.173 103.939 262.762 106.349 259.793 106.349C255.556 106.349 251.712 104.63 248.935 101.849C246.174 99.0872 244.46 95.2427 244.46 90.9914C244.46 86.74 246.174 82.9006 248.935 80.1341L248.945 80.1443L248.961 80.1341C251.737 77.3525 255.572 75.6336 259.793 75.6336V75.6387Z" fill="#03A589"/>
<path d="M259.792 106.33C256.832 106.33 254.437 103.935 254.437 100.975C254.437 98.0153 256.832 95.6201 259.792 95.6201C286.094 95.6201 309.893 106.269 327.107 123.483C344.336 140.712 354.995 164.511 354.995 190.792C354.995 217.078 344.336 240.878 327.107 258.107C309.878 275.336 286.078 285.995 259.792 285.995C233.511 285.995 209.712 275.336 192.482 258.107C175.269 240.893 164.62 217.094 164.62 190.792C164.62 187.833 167.02 185.437 169.975 185.437C172.934 185.437 175.33 187.833 175.33 190.792C175.33 214.098 184.788 235.208 200.085 250.504C215.367 265.781 236.481 275.234 259.797 275.234C283.119 275.234 304.228 265.781 319.509 250.504C334.786 235.223 344.239 214.109 344.239 190.792C344.239 167.476 334.786 146.367 319.509 131.08C304.213 115.789 283.103 106.325 259.797 106.325L259.792 106.33Z" fill="#03A589"/>
<path d="M259.792 126.316C256.827 126.316 254.417 123.906 254.417 120.941C254.417 117.971 256.827 115.566 259.792 115.566C280.571 115.566 299.376 123.987 312.995 137.6C326.608 151.214 335.03 170.025 335.03 190.798C335.03 211.577 326.608 230.383 312.995 244.001C299.382 257.615 280.571 266.036 259.792 266.036C239.019 266.036 220.213 257.615 206.594 244.001C192.981 230.388 184.56 211.577 184.56 190.798C184.56 187.834 186.965 185.423 189.935 185.423C192.9 185.423 195.31 187.834 195.31 190.798C195.31 208.607 202.526 224.728 214.197 236.399C225.868 248.064 241.988 255.286 259.792 255.286C277.601 255.286 293.722 248.069 305.392 236.399C317.058 224.728 324.279 208.607 324.279 190.798C324.279 172.989 317.063 156.874 305.392 145.203C293.722 133.537 277.601 126.316 259.792 126.316Z" fill="#03A589"/>
<path d="M259.793 146.275C256.828 146.275 254.417 143.865 254.417 140.895C254.417 137.93 256.828 135.519 259.793 135.519C275.059 135.519 288.876 141.703 298.879 151.711C308.876 161.709 315.07 175.536 315.07 190.792C315.07 206.058 308.887 219.875 298.879 229.878C288.876 239.881 275.054 246.07 259.793 246.07C244.532 246.07 230.71 239.881 220.712 229.878C210.709 219.875 204.52 206.053 204.52 190.792C204.52 187.827 206.93 185.417 209.895 185.417C212.865 185.417 215.276 187.827 215.276 190.792C215.276 203.088 220.259 214.22 228.314 222.275C236.37 230.331 247.501 235.314 259.793 235.314C272.089 235.314 283.221 230.331 291.276 222.275C299.331 214.22 304.315 203.088 304.315 190.792C304.315 178.496 299.331 167.369 291.276 159.314C283.221 151.259 272.089 146.275 259.793 146.275Z" fill="#03A589"/>
<path d="M259.793 166.235C256.828 166.235 254.417 163.824 254.417 160.859C254.417 157.89 256.828 155.479 259.793 155.479C269.546 155.479 278.374 159.436 284.767 165.823C291.154 172.215 295.11 181.043 295.11 190.792C295.11 200.545 291.154 209.374 284.767 215.766C278.374 222.153 269.541 226.109 259.793 226.109C250.039 226.109 241.216 222.153 234.824 215.766C228.436 209.374 224.48 200.54 224.48 190.792C224.48 187.827 226.89 185.417 229.86 185.417C232.825 185.417 235.235 187.827 235.235 190.792C235.235 197.576 237.987 203.719 242.431 208.163C246.876 212.608 253.014 215.359 259.798 215.359C266.582 215.359 272.725 212.608 277.169 208.163C281.614 203.719 284.365 197.581 284.365 190.792C284.365 184.013 281.614 177.87 277.169 173.425C272.725 168.981 266.587 166.23 259.798 166.23L259.793 166.235Z" fill="#03A589"/>
<path d="M259.792 186.196C256.828 186.196 254.417 183.785 254.417 180.82C254.417 177.851 256.828 175.44 259.792 175.44C264.018 175.44 267.853 177.164 270.629 179.941L270.639 179.951L270.655 179.941C273.431 182.717 275.15 186.562 275.15 190.798C275.15 195.039 273.431 198.884 270.655 201.66C267.878 204.437 264.033 206.156 259.792 206.156C255.556 206.156 251.712 204.437 248.935 201.66C248.818 201.538 248.711 201.421 248.605 201.294C246.021 198.548 244.435 194.856 244.435 190.798C244.435 187.833 246.845 185.423 249.815 185.423C252.78 185.423 255.19 187.833 255.19 190.798C255.19 191.988 255.627 193.066 256.35 193.874L256.538 194.052C257.367 194.886 258.516 195.4 259.787 195.4C261.064 195.4 262.213 194.886 263.042 194.052C263.876 193.224 264.389 192.074 264.389 190.798C264.389 189.527 263.876 188.377 263.042 187.548L263.052 187.533C262.223 186.709 261.069 186.196 259.787 186.196H259.792Z" fill="#03A589"/>
<path d="M255.195 190.791C255.195 193.761 252.785 196.171 249.82 196.171C246.85 196.171 244.44 193.761 244.44 190.791C244.44 188.991 244.394 187.333 244.307 185.817C244.211 184.185 244.058 182.517 243.86 180.798C243.524 177.849 245.64 175.194 248.584 174.859C251.529 174.523 254.188 176.638 254.524 179.583C254.737 181.378 254.9 183.244 255.017 185.187C255.134 187.17 255.19 189.047 255.19 190.791H255.195ZM171.216 96.2645C174.16 96.6002 176.276 99.2649 175.94 102.209C175.604 105.154 172.94 107.269 169.995 106.934C168.282 106.73 166.603 106.578 164.981 106.486C163.466 106.395 161.808 106.349 160.003 106.349C136.681 106.349 115.572 115.802 100.29 131.079C84.9988 146.37 75.535 167.485 75.535 190.791H75.5604C75.5604 193.761 73.15 196.171 70.1801 196.171C67.2154 196.171 64.8049 193.761 64.8049 190.791H64.8253C64.8304 164.495 75.474 140.695 92.6879 123.481C109.917 106.252 133.716 95.5933 160.003 95.5933C161.752 95.5933 163.628 95.6594 165.612 95.7713C167.549 95.8882 169.421 96.0509 171.216 96.2594V96.2645Z" fill="#03A589"/>
<path d="M235.236 190.793C235.236 193.763 232.825 196.173 229.86 196.173C226.891 196.173 224.48 193.763 224.48 190.793C224.48 188.256 224.343 185.804 224.073 183.44C223.799 180.994 223.387 178.588 222.843 176.239C222.181 173.35 223.987 170.472 226.875 169.811C229.769 169.15 232.642 170.955 233.303 173.844C233.939 176.6 234.422 179.407 234.747 182.265C235.068 185.118 235.236 187.961 235.236 190.793ZM176.942 117.493C179.831 118.154 181.636 121.032 180.975 123.921C180.314 126.809 177.43 128.615 174.547 127.954C172.198 127.415 169.797 127.003 167.351 126.723C164.987 126.453 162.535 126.316 159.993 126.316C142.184 126.316 126.063 133.532 114.398 145.203C102.732 156.874 95.5106 172.994 95.5106 190.798C95.5106 193.768 93.1002 196.179 90.1303 196.179C87.1656 196.179 84.7551 193.768 84.7551 190.798C84.7551 170.025 93.1815 151.219 106.79 137.6C120.403 123.987 139.219 115.566 159.993 115.566C162.825 115.566 165.673 115.733 168.521 116.054C171.374 116.374 174.181 116.862 176.937 117.498L176.942 117.493Z" fill="#03A589"/>
<path d="M215.255 190.924C215.184 193.884 212.732 196.223 209.773 196.152C206.813 196.081 204.469 193.63 204.54 190.67C204.545 190.462 204.535 190.528 204.535 189.673C204.535 178.018 199.627 167.328 191.76 159.482C183.843 151.584 172.96 146.55 161.06 146.265H161.04C160.887 146.26 160.867 146.275 159.992 146.275C147.696 146.275 136.564 151.259 128.509 159.314C120.454 167.369 115.47 178.501 115.47 190.792C115.47 193.762 113.06 196.172 110.095 196.172C107.125 196.172 104.715 193.762 104.715 190.792C104.715 175.531 110.903 161.709 120.911 151.711C130.909 141.708 144.731 135.519 159.992 135.519L161.309 135.55C176.062 135.906 189.538 142.125 199.317 151.879C209.147 161.684 215.28 175.068 215.28 189.673L215.25 190.919L215.255 190.924Z" fill="#03A589"/>
<path d="M195.315 190.792C195.315 193.762 192.905 196.172 189.94 196.172C186.97 196.172 184.565 193.762 184.565 190.792C184.565 184.013 181.814 177.87 177.369 173.425C172.925 168.981 166.787 166.23 159.998 166.23C153.214 166.23 147.071 168.981 142.626 173.425C138.182 177.87 135.43 184.008 135.43 190.792C135.43 193.762 133.025 196.172 130.055 196.172C127.09 196.172 124.68 193.762 124.68 190.792C124.68 181.038 128.631 172.215 135.024 165.823C141.411 159.436 150.244 155.479 159.993 155.479C169.746 155.479 178.574 159.436 184.962 165.823C191.354 172.215 195.305 181.043 195.305 190.792H195.315Z" fill="#03A589"/>
<path d="M175.355 190.792C175.355 193.762 172.945 196.172 169.98 196.172C167.01 196.172 164.6 193.762 164.6 190.792C164.6 189.521 164.086 188.372 163.257 187.543C162.408 186.693 161.259 186.175 160.003 186.175C158.746 186.175 157.592 186.693 156.748 187.543L156.56 187.721C155.843 188.529 155.405 189.607 155.405 190.792C155.405 193.762 152.995 196.172 150.025 196.172C147.06 196.172 144.65 193.762 144.65 190.792C144.65 186.739 146.237 183.042 148.82 180.301C148.922 180.179 149.033 180.052 149.15 179.935C151.912 177.174 155.756 175.46 160.008 175.46C164.259 175.46 168.098 177.174 170.865 179.935C173.647 182.712 175.365 186.556 175.365 190.792H175.355Z" fill="#03A589"/>
<path d="M60.203 95.6201C63.1627 95.6201 65.5579 98.0203 65.5579 100.975C65.5579 103.935 63.1627 106.33 60.203 106.33C36.8969 106.33 15.7876 115.789 0.490898 131.085C-14.7855 146.367 -24.2391 167.481 -24.2391 190.797C-24.2391 214.119 -14.7855 235.228 0.490898 250.509C15.7724 265.786 36.8867 275.24 60.203 275.24C83.5193 275.24 104.629 265.786 119.915 250.509C135.207 235.213 144.671 214.103 144.671 190.797C144.671 187.838 147.066 185.442 150.025 185.442C152.985 185.442 155.38 187.838 155.38 190.797C155.38 217.099 144.732 240.898 127.518 258.112C110.289 275.341 86.4892 286 60.2081 286C33.922 286 10.1225 275.341 -7.1066 258.112C-24.3357 240.883 -34.9946 217.084 -34.9946 190.797C-34.9946 164.516 -24.3357 140.717 -7.1066 123.488C10.1073 106.274 33.9067 95.6251 60.2081 95.6251L60.203 95.6201Z" fill="#03A589"/>
<path d="M60.203 115.56C63.1678 115.56 65.5782 117.965 65.5782 120.935C65.5782 123.9 63.1678 126.31 60.203 126.31C42.3941 126.31 26.2736 133.526 14.6078 145.197C2.93694 156.868 -4.28425 172.989 -4.28425 190.792C-4.28425 208.601 2.93186 224.722 14.6078 236.393C26.2736 248.058 42.3992 255.28 60.203 255.28C78.0119 255.28 94.1273 248.064 105.798 236.393C117.464 224.722 124.685 208.601 124.685 190.792C124.685 187.828 127.096 185.417 130.06 185.417C133.03 185.417 135.436 187.828 135.436 190.792C135.436 211.571 127.014 230.377 113.401 243.995C99.7873 257.609 80.9766 266.03 60.203 266.03C39.4243 266.03 20.6187 257.609 7.00013 243.995C-6.61334 230.382 -15.0347 211.571 -15.0347 190.792C-15.0347 170.019 -6.61334 151.213 7.00013 137.595C20.6136 123.981 39.4243 115.56 60.203 115.56Z" fill="#03A589"/>
<path d="M60.2022 135.519C63.167 135.519 65.5775 137.93 65.5775 140.895C65.5775 143.865 63.167 146.275 60.2022 146.275C47.9059 146.275 36.7741 151.259 28.7189 159.314C20.6637 167.369 15.6801 178.501 15.6801 190.792C15.6801 203.088 20.6637 214.22 28.7189 222.275C36.7741 230.331 47.9059 235.314 60.2022 235.314C72.4986 235.314 83.6253 230.331 91.6805 222.275C99.7357 214.22 104.719 203.088 104.719 190.792C104.719 187.827 107.13 185.417 110.1 185.417C113.064 185.417 115.475 187.827 115.475 190.792C115.475 206.058 109.291 219.875 99.2831 229.878C89.2853 239.876 75.4583 246.07 60.2022 246.07C44.936 246.07 31.1192 239.886 21.1163 229.878C11.1185 219.875 4.92456 206.053 4.92456 190.792C4.92456 175.531 11.1134 161.709 21.1163 151.711C31.1192 141.708 44.9411 135.519 60.2022 135.519Z" fill="#03A589"/>
<path d="M60.2025 155.479C63.1673 155.479 65.5777 157.89 65.5777 160.859C65.5777 163.824 63.1673 166.235 60.2025 166.235C53.4187 166.235 47.2756 168.986 42.831 173.43C38.3864 177.875 35.6352 184.013 35.6352 190.797C35.6352 197.581 38.3864 203.724 42.831 208.168C47.2756 212.613 53.4136 215.364 60.2025 215.364C66.9813 215.364 73.1295 212.613 77.569 208.168C82.0136 203.724 84.7647 197.586 84.7647 190.797C84.7647 187.832 87.1752 185.422 90.1399 185.422C93.1098 185.422 95.5202 187.832 95.5202 190.797C95.5202 200.551 91.5689 209.379 85.1767 215.771C78.7895 222.158 69.9562 226.115 60.2076 226.115C50.4539 226.115 41.6258 222.158 35.2335 215.771C28.8463 209.379 24.8899 200.545 24.8899 190.797C24.8899 181.043 28.8463 172.22 35.2335 165.828C41.6258 159.441 50.459 155.484 60.2076 155.484L60.2025 155.479Z" fill="#03A589"/>
<path d="M60.2024 175.44C63.1672 175.44 65.5776 177.851 65.5776 180.82C65.5776 183.785 63.1672 186.196 60.2024 186.196C58.9209 186.196 57.7665 186.709 56.9376 187.533C56.1087 188.367 55.5951 189.516 55.5951 190.798C55.5951 192.079 56.1087 193.234 56.9376 194.063L56.9478 194.052C57.7767 194.886 58.9311 195.4 60.2024 195.4C61.4738 195.4 62.6231 194.886 63.452 194.052C64.286 193.224 64.7996 192.074 64.7996 190.798C64.7996 187.833 67.21 185.423 70.1748 185.423C73.1446 185.423 75.5551 187.833 75.5551 190.798C75.5551 195.039 73.8312 198.884 71.0546 201.66C68.278 204.437 64.4334 206.156 60.1973 206.156C55.9562 206.156 52.1116 204.437 49.335 201.66L49.3503 201.645L49.335 201.635C46.5584 198.858 44.8396 195.024 44.8396 190.798C44.8396 186.572 46.5584 182.743 49.335 179.966L49.3605 179.941C52.1371 177.164 55.9714 175.44 60.1973 175.44H60.2024Z" fill="#03A589"/>
<path d="M3.81133 122.339C5.25557 124.923 4.32495 128.187 1.73143 129.626C-0.851927 131.066 -4.11672 130.135 -5.55587 127.547C-8.61725 122.054 -11.0074 116.13 -12.6245 109.895C-14.201 103.808 -15.04 97.4769 -15.04 91.0033C-15.04 84.5246 -14.201 78.1933 -12.6245 72.1112C-11.0074 65.8766 -8.61725 59.9522 -5.55587 54.46C-4.11672 51.8716 -0.851927 50.941 1.73143 52.3801C4.31987 53.8193 5.25048 57.0841 3.81133 59.6674C1.18729 64.3866 -0.862097 69.4618 -2.24531 74.7963C-3.57767 79.9274 -4.28454 85.3586 -4.28454 91.0033C-4.28454 96.648 -3.57767 102.079 -2.24531 107.21C-0.862097 112.55 1.18729 117.625 3.81133 122.339Z" fill="#03A589"/>
<path d="M20.1866 110.591C21.4834 113.251 20.3849 116.455 17.7253 117.752C15.0708 119.048 11.8619 117.95 10.5651 115.295C8.72933 111.548 7.30544 107.586 6.34939 103.472C5.41369 99.4342 4.92041 95.2541 4.92041 90.9926C4.92041 86.731 5.41369 82.556 6.34939 78.5131C7.30035 74.3991 8.72425 70.4376 10.5651 66.6897C11.8619 64.0351 15.0758 62.9367 17.7253 64.2335C20.3849 65.5302 21.4834 68.7391 20.1866 71.3936C18.7271 74.3635 17.5829 77.552 16.8099 80.9032C16.0675 84.1121 15.6759 87.4837 15.6759 90.9875C15.6759 94.4862 16.0675 97.8578 16.8099 101.072C17.5829 104.423 18.7271 107.611 20.1866 110.581V110.591Z" fill="#03A589"/>
<path d="M38.4473 102.455C39.8305 105.074 38.8236 108.319 36.2047 109.702C33.5806 111.08 30.3362 110.073 28.953 107.454C27.6409 104.962 26.6137 102.288 25.917 99.4753C25.2407 96.7292 24.8745 93.8865 24.8745 90.9981C24.8745 88.1096 25.2407 85.2669 25.917 82.5208C26.6137 79.7086 27.6409 77.0337 28.953 74.5419C30.3362 71.9229 33.5755 70.916 36.2047 72.2942C38.8236 73.6774 39.8305 76.9168 38.4473 79.5408C37.5319 81.28 36.8149 83.1361 36.3369 85.0838C35.8741 86.945 35.63 88.9233 35.63 90.9981C35.63 93.0729 35.8741 95.0511 36.3369 96.9123C36.8149 98.8549 37.5319 100.711 38.4473 102.455Z" fill="#03A589"/>
<path d="M60.2027 95.5992C63.1675 95.5992 65.5779 98.0096 65.5779 100.979C65.5779 103.944 63.1675 106.355 60.2027 106.355C55.9615 106.355 52.117 104.636 49.3404 101.854C49.2235 101.737 49.1167 101.62 49.0099 101.493C46.4316 98.7419 44.845 95.0551 44.845 90.997C44.845 86.771 46.5638 82.9418 49.3404 80.1601L49.3658 80.1398C52.1424 77.3581 55.9768 75.6392 60.2027 75.6392C63.1675 75.6392 65.5779 78.0497 65.5779 81.0144C65.5779 83.9843 63.1675 86.3947 60.2027 86.3947C58.9212 86.3947 57.7668 86.9083 56.9379 87.7322C56.109 88.5611 55.5954 89.7155 55.5954 90.997C55.5954 92.1819 56.0327 93.2599 56.7548 94.0736L56.943 94.2516C57.7719 95.0805 58.9263 95.5941 60.1976 95.5941L60.2027 95.5992Z" fill="#03A589"/>
<path d="M325.546 127.541C324.107 130.129 320.842 131.06 318.258 129.621C315.67 128.182 314.739 124.917 316.179 122.334C318.803 117.614 320.852 112.539 322.235 107.205C323.568 102.074 324.274 96.6425 324.274 90.9977C324.274 85.353 323.568 79.9218 322.235 74.7907C320.852 69.4511 318.803 64.3759 316.179 59.6618C314.734 57.0785 315.665 53.8137 318.258 52.3745C320.842 50.9354 324.107 51.866 325.546 54.4544C328.607 59.9466 330.997 65.871 332.614 72.1057C334.191 78.1928 335.03 84.5241 335.03 90.9977C335.03 97.4765 334.191 103.808 332.614 109.89C330.997 116.124 328.607 122.049 325.546 127.541Z" fill="#03A589"/>
<path d="M309.431 115.299C308.134 117.954 304.92 119.052 302.271 117.756C299.611 116.459 298.513 113.25 299.809 110.595C301.269 107.626 302.413 104.437 303.186 101.086C303.928 97.8769 304.32 94.5054 304.32 91.0016C304.32 87.5028 303.928 84.1313 303.186 80.9173C302.413 77.5661 301.269 74.3776 299.809 71.4077C298.513 68.7481 299.611 65.5443 302.271 64.2476C304.925 62.9508 308.134 64.0492 309.431 66.7038C311.267 70.4517 312.69 74.4132 313.647 78.5272C314.582 82.565 315.075 86.7451 315.075 91.0066C315.075 95.2682 314.582 99.4432 313.647 103.486C312.696 107.6 311.272 111.562 309.431 115.31V115.299Z" fill="#03A589"/>
<path d="M291.036 107.449C289.653 110.068 286.414 111.075 283.785 109.697C281.166 108.313 280.159 105.074 281.542 102.45C282.457 100.711 283.174 98.8546 283.652 96.9069C284.115 95.0456 284.359 93.0674 284.359 90.9926C284.359 88.9178 284.115 86.9396 283.652 85.0784C283.174 83.1357 282.457 81.2796 281.542 79.5353C280.159 76.9164 281.166 73.6719 283.785 72.2887C286.409 70.9106 289.653 71.9175 291.036 74.5364C292.348 77.0282 293.376 79.7031 294.072 82.5153C294.749 85.2614 295.115 88.1041 295.115 90.9926C295.115 93.8811 294.749 96.7238 294.072 99.4699C293.376 102.282 292.348 104.957 291.036 107.449Z" fill="#03A589"/>
<path d="M259.793 106.354C256.828 106.354 254.417 103.944 254.417 100.979C254.417 98.0093 256.828 95.5989 259.793 95.5989C261.069 95.5989 262.218 95.0853 263.047 94.2564C263.881 93.4224 264.395 92.2731 264.395 91.0017C264.395 89.7304 263.881 88.5811 263.047 87.7471L262.869 87.559C262.061 86.8419 260.983 86.4046 259.793 86.4046C256.828 86.4046 254.417 83.9941 254.417 81.0243C254.417 78.0595 256.828 75.6491 259.793 75.6491C263.851 75.6491 267.543 77.2357 270.289 79.8191C270.411 79.9208 270.533 80.0326 270.655 80.1496C273.432 82.9262 275.15 86.7707 275.15 91.0068C275.15 95.248 273.432 99.0874 270.655 101.864C267.878 104.646 264.034 106.365 259.793 106.365V106.354Z" fill="#03A589"/>
</g>
</svg>
