<svg width="320" height="182" viewBox="0 0 320 182" fill="none" xmlns="http://www.w3.org/2000/svg">
<rect width="320" height="182" rx="10" fill="#D93535"/>
<mask id="mask0" mask-type="alpha" maskUnits="userSpaceOnUse" x="0" y="0" width="320" height="182">
<rect width="320" height="182" rx="10" fill="#6A6DCD"/>
</mask>
<g mask="url(#mask0)">
<path fill-rule="evenodd" clip-rule="evenodd" d="M301.058 -48.6486C305.04 -43.4797 309.994 -37.0509 319.99 -37.0509V-48.1039C315.633 -48.1039 313.504 -50.6072 309.817 -55.4004L309.809 -55.4105C305.827 -60.5752 300.874 -67 290.884 -67C280.888 -67 275.931 -60.5669 271.951 -55.397C268.258 -50.6038 266.132 -48.1039 261.775 -48.1039C257.425 -48.1039 255.299 -50.6038 251.612 -55.397L251.604 -55.4074C247.622 -60.5755 242.672 -67 232.686 -67C222.69 -67 217.737 -60.5669 213.757 -55.397C210.063 -50.6038 207.937 -48.1039 203.584 -48.1039C199.234 -48.1039 197.107 -50.6038 193.421 -55.397L193.413 -55.4074C189.431 -60.5755 184.481 -67 174.495 -67C164.504 -67 159.554 -60.5702 155.575 -55.401L155.572 -55.397C151.885 -50.6038 149.759 -48.1039 145.415 -48.1039C141.072 -48.1039 138.946 -50.6038 135.259 -55.397L135.253 -55.4048C131.274 -60.5699 126.321 -67 116.336 -67C106.347 -67 101.393 -60.5669 97.417 -55.397C93.7304 -50.6038 91.6038 -48.1039 87.2573 -48.1039C82.9107 -48.1039 80.7841 -50.6038 77.0976 -55.397L77.0945 -55.401C73.1152 -60.5702 68.1653 -67 58.1748 -67C48.1818 -67 43.2286 -60.5669 39.2488 -55.397C35.5622 -50.6038 33.4356 -48.1039 29.0858 -48.1039C24.7392 -48.1039 22.6093 -50.6038 18.9227 -55.397L18.9197 -55.401C14.9403 -60.5701 9.99048 -67 0 -67V-55.947C4.34653 -55.947 6.47313 -53.4471 10.1563 -48.6539C14.1362 -43.4841 19.0894 -37.0509 29.0791 -37.0509C39.0688 -37.0509 44.022 -43.4841 48.0018 -48.6539C51.6917 -53.4471 53.8183 -55.947 58.1682 -55.947C62.5147 -55.947 64.6446 -53.4471 68.3312 -48.6539C72.3077 -43.4841 77.2609 -37.0509 87.2506 -37.0509C97.2403 -37.0509 102.193 -43.4841 106.17 -48.6539C109.857 -53.4471 111.983 -55.947 116.33 -55.947C120.676 -55.947 122.803 -53.4471 126.489 -48.6539L126.492 -48.65C130.472 -43.4808 135.422 -37.0509 145.409 -37.0509C155.396 -37.0509 160.346 -43.4808 164.325 -48.65L164.328 -48.6539C168.015 -53.4471 170.141 -55.947 174.488 -55.947C178.838 -55.947 180.964 -53.4471 184.651 -48.6539L184.659 -48.6436C188.641 -43.4755 193.591 -37.0509 203.577 -37.0509C213.573 -37.0509 218.526 -43.4841 222.506 -48.6539C226.2 -53.4471 228.326 -55.947 232.679 -55.947C237.029 -55.947 239.156 -53.4471 242.842 -48.6539L242.85 -48.6435C246.832 -43.4754 251.782 -37.0509 261.768 -37.0509C271.765 -37.0509 276.721 -43.4841 280.701 -48.6539C284.394 -53.4471 286.521 -55.947 290.878 -55.947C295.234 -55.947 297.364 -53.4471 301.054 -48.6539L301.058 -48.6486ZM301.058 -22.6986C305.04 -17.5297 309.994 -11.1008 319.99 -11.1008H319.997V-22.1572C315.64 -22.1572 313.507 -24.6571 309.817 -29.4503L309.809 -29.4605C305.827 -34.6252 300.874 -41.0499 290.884 -41.0499C280.888 -41.0499 275.931 -34.6168 271.952 -29.4469C268.258 -24.6538 266.132 -22.1538 261.775 -22.1538C257.425 -22.1538 255.299 -24.6538 251.612 -29.4469L251.604 -29.4573C247.622 -34.6254 242.672 -41.0499 232.686 -41.0499C222.69 -41.0499 217.737 -34.6168 213.757 -29.4469C210.063 -24.6538 207.937 -22.1538 203.584 -22.1538C199.234 -22.1538 197.107 -24.6538 193.421 -29.4469L193.413 -29.4573C189.431 -34.6254 184.481 -41.0499 174.495 -41.0499C164.504 -41.0499 159.554 -34.6201 155.575 -29.4509L155.572 -29.4469C151.885 -24.6538 149.759 -22.1538 145.415 -22.1538C141.072 -22.1538 138.946 -24.6538 135.259 -29.4469L135.253 -29.4547C131.274 -34.6198 126.321 -41.0499 116.336 -41.0499C106.347 -41.0499 101.394 -34.6168 97.417 -29.4469C93.7304 -24.6538 91.6038 -22.1538 87.2573 -22.1538C82.9107 -22.1538 80.7841 -24.6538 77.0976 -29.4469L77.0945 -29.4509C73.1152 -34.6201 68.1653 -41.0499 58.1748 -41.0499C48.1818 -41.0499 43.2286 -34.6168 39.2488 -29.4469C35.5622 -24.6538 33.4356 -22.1538 29.0858 -22.1538C24.7392 -22.1538 22.6093 -24.6538 18.9227 -29.4469L18.9197 -29.4509C14.9403 -34.6201 9.99048 -41.0499 0 -41.0499V-29.9969C4.34653 -29.9969 6.47313 -27.497 10.1563 -22.7038C14.1362 -17.534 19.0894 -11.1008 29.0791 -11.1008C39.0688 -11.1008 44.022 -17.534 48.0018 -22.7038C51.6917 -27.497 53.8183 -29.9969 58.1682 -29.9969C62.5147 -29.9969 64.6446 -27.497 68.3312 -22.7038C72.3077 -17.534 77.2609 -11.1008 87.2506 -11.1008C97.2403 -11.1008 102.193 -17.534 106.17 -22.7038C109.857 -27.497 111.983 -29.9969 116.33 -29.9969C120.676 -29.9969 122.803 -27.497 126.489 -22.7038L126.492 -22.6999C130.472 -17.5307 135.422 -11.1008 145.409 -11.1008C155.396 -11.1008 160.346 -17.5307 164.325 -22.6999L164.328 -22.7038C168.015 -27.497 170.141 -29.9969 174.488 -29.9969C178.838 -29.9969 180.964 -27.497 184.651 -22.7038L184.659 -22.6934C188.641 -17.5254 193.591 -11.1008 203.577 -11.1008C213.573 -11.1008 218.527 -17.534 222.506 -22.7038C226.2 -27.497 228.326 -29.9969 232.679 -29.9969C237.029 -29.9969 239.156 -27.497 242.842 -22.7038L242.85 -22.6934C246.832 -17.5254 251.782 -11.1008 261.768 -11.1008C271.765 -11.1008 276.721 -17.534 280.701 -22.7038C284.394 -27.497 286.521 -29.9969 290.878 -29.9969C295.234 -29.9969 297.364 -27.497 301.054 -22.7038L301.058 -22.6986ZM319.99 14.8482C309.994 14.8482 305.04 8.41941 301.058 3.25047L301.054 3.24525C297.364 -1.54794 295.234 -4.04786 290.878 -4.04786C286.521 -4.04786 284.394 -1.54794 280.701 3.24525C276.721 8.41508 271.765 14.8482 261.768 14.8482C251.782 14.8482 246.832 8.4237 242.85 3.25564L242.842 3.24525C239.156 -1.54794 237.029 -4.04786 232.679 -4.04786C228.326 -4.04786 226.2 -1.54794 222.506 3.24525C218.527 8.41508 213.573 14.8482 203.577 14.8482C193.591 14.8482 188.641 8.42371 184.659 3.25564L184.651 3.24525C180.964 -1.54794 178.838 -4.04786 174.488 -4.04786C170.141 -4.04786 168.015 -1.54794 164.328 3.24525L164.325 3.24921C160.346 8.41837 155.396 14.8482 145.409 14.8482C135.422 14.8482 130.472 8.41837 126.492 3.24921L126.489 3.24525C122.803 -1.54794 120.676 -4.04786 116.33 -4.04786C111.983 -4.04786 109.857 -1.54794 106.17 3.24525C102.193 8.41508 97.2403 14.8482 87.2506 14.8482C77.2609 14.8482 72.3077 8.41508 68.3312 3.24525C64.6446 -1.54794 62.5147 -4.04786 58.1682 -4.04786C53.8183 -4.04786 51.6917 -1.54794 48.0018 3.24525C44.022 8.41508 39.0688 14.8482 29.0791 14.8482C19.0894 14.8482 14.1362 8.41508 10.1563 3.24525C6.47313 -1.54794 4.34653 -4.04786 0 -4.04786V-15.1008C9.99047 -15.1008 14.9403 -8.67099 18.9197 -3.50182L18.9227 -3.49787C22.6093 1.29532 24.7392 3.79523 29.0858 3.79523C33.4356 3.79523 35.5622 1.29532 39.2488 -3.49787C43.2286 -8.66771 48.1818 -15.1008 58.1748 -15.1008C68.1653 -15.1008 73.1152 -8.67099 77.0945 -3.50182L77.0976 -3.49787C80.7841 1.29532 82.9107 3.79523 87.2573 3.79523C91.6038 3.79523 93.7304 1.29532 97.417 -3.49787C101.394 -8.66771 106.347 -15.1008 116.336 -15.1008C126.321 -15.1008 131.274 -8.67078 135.253 -3.50558L135.259 -3.49787C138.946 1.29532 141.072 3.79523 145.415 3.79523C149.759 3.79523 151.885 1.29532 155.572 -3.49787L155.575 -3.50182C159.554 -8.67099 164.504 -15.1008 174.495 -15.1008C184.481 -15.1008 189.431 -8.67628 193.413 -3.50821L193.421 -3.49787C197.107 1.29532 199.234 3.79523 203.584 3.79523C207.937 3.79523 210.063 1.29532 213.757 -3.49787C217.737 -8.66771 222.69 -15.1008 232.686 -15.1008C242.672 -15.1008 247.622 -8.67632 251.604 -3.50826L251.612 -3.49787C255.299 1.29532 257.425 3.79523 261.775 3.79523C266.132 3.79523 268.258 1.29532 271.952 -3.49787C275.931 -8.66771 280.888 -15.1008 290.884 -15.1008C300.874 -15.1008 305.827 -8.67617 309.809 -3.51141L309.817 -3.5012C313.507 1.29198 315.64 3.79191 319.997 3.79191V14.8482H319.99ZM301.058 29.2007C305.04 34.3696 309.994 40.7984 319.99 40.7984H319.997V29.7421C315.64 29.7421 313.507 27.2422 309.817 22.449L309.809 22.4388C305.827 17.274 300.874 10.8493 290.884 10.8493C280.888 10.8493 275.931 17.2825 271.952 22.4523C268.258 27.2455 266.132 29.7454 261.775 29.7454C257.425 29.7454 255.299 27.2455 251.612 22.4523L251.604 22.4419C247.622 17.2739 242.672 10.8493 232.686 10.8493C222.69 10.8493 217.737 17.2825 213.757 22.4523C210.063 27.2455 207.937 29.7454 203.584 29.7454C199.234 29.7454 197.107 27.2455 193.421 22.4523L193.413 22.442C189.431 17.2739 184.481 10.8493 174.495 10.8493C164.504 10.8493 159.554 17.2792 155.575 22.4484L155.572 22.4523C151.885 27.2455 149.759 29.7454 145.415 29.7454C141.072 29.7454 138.946 27.2455 135.259 22.4523L135.253 22.4446C131.274 17.2794 126.321 10.8493 116.336 10.8493C106.347 10.8493 101.394 17.2825 97.417 22.4523C93.7304 27.2455 91.6038 29.7454 87.2573 29.7454C82.9107 29.7454 80.7841 27.2455 77.0976 22.4523L77.0945 22.4484C73.1152 17.2792 68.1653 10.8493 58.1748 10.8493C48.1818 10.8493 43.2286 17.2825 39.2488 22.4523C35.5622 27.2455 33.4356 29.7454 29.0858 29.7454C24.7392 29.7454 22.6093 27.2455 18.9227 22.4523L18.9197 22.4484C14.9403 17.2792 9.99047 10.8493 0 10.8493V21.9023C4.34653 21.9023 6.47313 24.4023 10.1563 29.1954C14.1362 34.3653 19.0894 40.7984 29.0791 40.7984C39.0688 40.7984 44.022 34.3653 48.0018 29.1954C51.6917 24.4023 53.8183 21.9023 58.1682 21.9023C62.5147 21.9023 64.6446 24.4023 68.3312 29.1954C72.3077 34.3653 77.2609 40.7984 87.2506 40.7984C97.2403 40.7984 102.193 34.3653 106.17 29.1954C109.857 24.4023 111.983 21.9023 116.33 21.9023C120.676 21.9023 122.803 24.4023 126.489 29.1954L126.492 29.1994C130.472 34.3685 135.422 40.7984 145.409 40.7984C155.396 40.7984 160.346 34.3685 164.325 29.1994L164.328 29.1954C168.015 24.4023 170.141 21.9023 174.488 21.9023C178.838 21.9023 180.964 24.4023 184.651 29.1954L184.659 29.2058C188.641 34.3739 193.591 40.7984 203.577 40.7984C213.573 40.7984 218.527 34.3653 222.506 29.1954C226.2 24.4023 228.326 21.9023 232.679 21.9023C237.029 21.9023 239.156 24.4023 242.842 29.1954L242.85 29.2058C246.832 34.3739 251.782 40.7984 261.768 40.7984C271.765 40.7984 276.721 34.3653 280.701 29.1954C284.394 24.4023 286.521 21.9023 290.878 21.9023C295.234 21.9023 297.364 24.4023 301.054 29.1954L301.058 29.2007ZM319.99 66.7473C309.994 66.7473 305.04 60.3185 301.058 55.1496L301.054 55.1443C297.364 50.3511 295.234 47.8512 290.878 47.8512C286.521 47.8512 284.394 50.3511 280.701 55.1443C276.721 60.3141 271.765 66.7473 261.768 66.7473C251.782 66.7473 246.832 60.3228 242.85 55.1547L242.842 55.1443C239.156 50.3511 237.029 47.8512 232.679 47.8512C228.326 47.8512 226.2 50.3511 222.506 55.1443C218.526 60.3141 213.573 66.7473 203.577 66.7473C193.591 66.7473 188.641 60.3227 184.659 55.1547L184.651 55.1443C180.964 50.3511 178.838 47.8512 174.488 47.8512C170.141 47.8512 168.015 50.3511 164.328 55.1443L164.325 55.1483C160.346 60.3174 155.396 66.7473 145.409 66.7473C135.422 66.7473 130.472 60.3174 126.492 55.1483L126.489 55.1443C122.803 50.3511 120.676 47.8512 116.33 47.8512C111.983 47.8512 109.857 50.3511 106.17 55.1443C102.193 60.3141 97.2403 66.7473 87.2506 66.7473C77.2609 66.7473 72.3077 60.3141 68.3312 55.1443C64.6446 50.3511 62.5147 47.8512 58.1682 47.8512C53.8183 47.8512 51.6917 50.3511 48.0018 55.1443C44.022 60.3141 39.0688 66.7473 29.0791 66.7473C19.0894 66.7473 14.1362 60.3141 10.1563 55.1443C6.47313 50.3511 4.34653 47.8512 0 47.8512V36.7982C9.99048 36.7982 14.9403 43.2281 18.9197 48.3973L18.9227 48.4012C22.6093 53.1944 24.7392 55.6943 29.0858 55.6943C33.4356 55.6943 35.5622 53.1944 39.2488 48.4012C43.2286 43.2314 48.1818 36.7982 58.1748 36.7982C68.1653 36.7982 73.1152 43.2281 77.0945 48.3972L77.0976 48.4012C80.7841 53.1944 82.9107 55.6943 87.2573 55.6943C91.6038 55.6943 93.7304 53.1944 97.417 48.4012C101.393 43.2314 106.347 36.7982 116.336 36.7982C126.321 36.7982 131.274 43.2283 135.253 48.3935L135.259 48.4012C138.946 53.1944 141.072 55.6943 145.415 55.6943C149.759 55.6943 151.885 53.1944 155.572 48.4012L155.575 48.3972C159.554 43.2281 164.504 36.7982 174.495 36.7982C184.481 36.7982 189.431 43.2228 193.413 48.3908L193.421 48.4012C197.107 53.1944 199.234 55.6943 203.584 55.6943C207.937 55.6943 210.063 53.1944 213.757 48.4012C217.737 43.2314 222.69 36.7982 232.686 36.7982C242.672 36.7982 247.622 43.2227 251.604 48.3908L251.612 48.4012C255.299 53.1944 257.425 55.6943 261.775 55.6943C266.132 55.6943 268.258 53.1944 271.951 48.4012C275.931 43.2314 280.888 36.7982 290.884 36.7982C300.874 36.7982 305.827 43.223 309.809 48.3878L309.817 48.3979C313.504 53.191 315.633 55.691 319.99 55.691V66.7473ZM301.058 81.0997C305.04 86.2686 309.994 92.6975 319.99 92.6975H319.997V81.6412C315.64 81.6412 313.507 79.1412 309.817 74.3481L309.809 74.3378C305.827 69.1731 300.874 62.7484 290.884 62.7484C280.888 62.7484 275.931 69.1815 271.952 74.3514C268.258 79.1446 266.132 81.6445 261.775 81.6445C257.425 81.6445 255.299 79.1446 251.612 74.3514L251.604 74.341C247.622 69.1729 242.672 62.7484 232.686 62.7484C222.69 62.7484 217.737 69.1815 213.757 74.3514C210.063 79.1446 207.937 81.6445 203.584 81.6445C199.234 81.6445 197.107 79.1446 193.421 74.3514L193.413 74.341C189.431 69.173 184.481 62.7484 174.495 62.7484C164.504 62.7484 159.554 69.1783 155.575 74.3474L155.572 74.3514C151.885 79.1446 149.759 81.6445 145.415 81.6445C141.072 81.6445 138.946 79.1446 135.259 74.3514L135.253 74.3437C131.274 69.1785 126.321 62.7484 116.336 62.7484C106.347 62.7484 101.394 69.1815 97.417 74.3514C93.7304 79.1446 91.6038 81.6445 87.2573 81.6445C82.9107 81.6445 80.7841 79.1446 77.0976 74.3514L77.0945 74.3474C73.1152 69.1783 68.1653 62.7484 58.1748 62.7484C48.1818 62.7484 43.2286 69.1815 39.2488 74.3514C35.5622 79.1446 33.4356 81.6445 29.0858 81.6445C24.7392 81.6445 22.6093 79.1446 18.9227 74.3514L18.9197 74.3474C14.9403 69.1783 9.99047 62.7484 0 62.7484V73.8014C4.34653 73.8014 6.47313 76.3013 10.1563 81.0945C14.1362 86.2643 19.0894 92.6975 29.0791 92.6975C39.0688 92.6975 44.022 86.2643 48.0018 81.0945C51.6917 76.3013 53.8183 73.8014 58.1682 73.8014C62.5147 73.8014 64.6446 76.3013 68.3312 81.0945C72.3077 86.2643 77.2609 92.6975 87.2506 92.6975C97.2403 92.6975 102.193 86.2643 106.17 81.0945C109.857 76.3013 111.983 73.8014 116.33 73.8014C120.676 73.8014 122.803 76.3013 126.489 81.0945L126.492 81.0984C130.472 86.2676 135.422 92.6975 145.409 92.6975C155.396 92.6975 160.346 86.2676 164.325 81.0984L164.328 81.0945C168.015 76.3013 170.141 73.8014 174.488 73.8014C178.838 73.8014 180.964 76.3013 184.651 81.0945L184.659 81.1049C188.641 86.2729 193.591 92.6975 203.577 92.6975C213.573 92.6975 218.527 86.2643 222.506 81.0945C226.2 76.3013 228.326 73.8014 232.679 73.8014C237.029 73.8014 239.156 76.3013 242.842 81.0945L242.85 81.1049C246.832 86.2729 251.782 92.6975 261.768 92.6975C271.765 92.6975 276.721 86.2643 280.701 81.0945C284.394 76.3013 286.521 73.8014 290.878 73.8014C295.234 73.8014 297.364 76.3013 301.054 81.0945L301.058 81.0997ZM319.99 118.651C309.999 118.651 305.046 112.226 301.065 107.062L301.054 107.048C297.364 102.255 295.234 99.7548 290.878 99.7548C286.521 99.7548 284.394 102.255 280.701 107.048C276.721 112.218 271.765 118.651 261.768 118.651C251.788 118.651 246.838 112.23 242.857 107.067L242.842 107.048C239.156 102.255 237.029 99.7548 232.679 99.7548C228.326 99.7548 226.2 102.255 222.506 107.048C218.53 112.218 213.573 118.651 203.577 118.651C193.596 118.651 188.646 112.23 184.666 107.067L184.651 107.048C180.964 102.255 178.838 99.7548 174.488 99.7548C170.141 99.7548 168.015 102.255 164.328 107.048L164.325 107.052C160.346 112.221 155.396 118.651 145.409 118.651C135.427 118.651 130.477 112.225 126.499 107.061L126.489 107.048C122.803 102.255 120.676 99.7548 116.33 99.7548C111.983 99.7548 109.857 102.255 106.17 107.048L106.167 107.052C102.188 112.221 97.2378 118.651 87.2473 118.651C77.2584 118.651 72.3085 112.22 68.3328 107.054L68.3279 107.048C64.6413 102.255 62.5114 99.7548 58.1649 99.7548C53.815 99.7548 51.6884 102.255 47.9985 107.048L47.9955 107.052C44.0161 112.221 39.0662 118.651 29.0758 118.651C19.091 118.651 14.1411 112.225 10.1629 107.061L10.153 107.048C6.47313 102.255 4.34653 99.7548 0 99.7548V88.6985C9.98791 88.6985 14.9378 95.1284 18.9166 100.297L18.9227 100.305C22.6093 105.098 24.7392 107.598 29.0858 107.598C33.4356 107.598 35.5622 105.098 39.2488 100.305L39.2509 100.302C43.2304 95.1327 48.1836 88.6985 58.1748 88.6985C68.1628 88.6985 73.1126 95.1284 77.0915 100.297L77.0976 100.305C80.7841 105.098 82.9107 107.598 87.2573 107.598C91.6038 107.598 93.7304 105.098 97.417 100.305C101.394 95.135 106.347 88.6985 116.336 88.6985C126.324 88.6985 131.277 95.1327 135.257 100.302L135.259 100.305C138.946 105.098 141.072 107.598 145.415 107.598C149.759 107.598 151.885 105.098 155.572 100.305L155.578 100.297C159.557 95.1284 164.507 88.6985 174.495 88.6985C184.478 88.6985 189.428 95.1231 193.41 100.29L193.421 100.305C197.107 105.098 199.234 107.598 203.584 107.598C207.937 107.598 210.063 105.098 213.757 100.305C217.733 95.135 222.69 88.7018 232.686 88.7018C242.67 88.7018 247.62 95.1264 251.601 100.294L251.612 100.308C255.299 105.101 257.425 107.601 261.775 107.601C266.132 107.601 268.258 105.101 271.952 100.308C275.931 95.1383 280.888 88.7052 290.884 88.7052C300.877 88.7052 305.83 95.134 309.813 100.303L309.817 100.308C313.507 105.101 315.64 107.601 319.997 107.601V118.651H319.99ZM301.065 133.002C305.046 138.166 309.999 144.591 319.99 144.591H320V133.531C315.643 133.531 313.51 131.031 309.82 126.238L309.81 126.224C305.828 121.06 300.875 114.635 290.888 114.635C280.891 114.635 275.935 121.068 271.955 126.238C268.262 131.031 266.135 133.531 261.779 133.531C257.429 133.531 255.302 131.031 251.615 126.238L251.601 126.219C247.62 121.056 242.67 114.635 232.689 114.635C222.693 114.635 217.737 121.068 213.76 126.238C210.067 131.031 207.94 133.531 203.587 133.531C199.237 133.531 197.111 131.031 193.424 126.238L193.409 126.219C189.428 121.056 184.478 114.635 174.498 114.635C164.505 114.635 159.555 121.068 155.575 126.242C151.889 131.035 149.762 133.535 145.419 133.535C141.076 133.535 138.949 131.035 135.262 126.242L135.256 126.234C131.278 121.065 126.328 114.635 116.34 114.635C106.347 114.635 101.397 121.068 97.417 126.242C93.7304 131.035 91.6038 133.535 87.2573 133.535C82.9107 133.535 80.7841 131.035 77.0976 126.242L77.0915 126.234C73.1126 121.065 68.1628 114.635 58.1748 114.635C48.1818 114.635 43.2286 121.068 39.2488 126.242C35.5622 131.035 33.4356 133.535 29.0858 133.535C24.7392 133.535 22.6093 131.035 18.9227 126.242L18.9128 126.229C14.9347 121.064 9.98473 114.639 0 114.639V125.692C4.34653 125.692 6.47313 128.191 10.153 132.991L10.1629 133.004C14.1411 138.169 19.091 144.594 29.0758 144.594C39.0663 144.594 44.0161 138.164 47.9955 132.995L47.9985 132.991C51.6884 128.198 53.815 125.698 58.1649 125.698C62.5114 125.698 64.6413 128.198 68.3279 132.991L68.3328 132.998C72.3085 138.163 77.2584 144.594 87.2473 144.594C97.2403 144.594 102.19 138.161 106.17 132.988C109.857 128.195 111.983 125.695 116.33 125.695C120.676 125.695 122.803 128.195 126.489 132.988L126.499 133.001C130.477 138.165 135.427 144.591 145.409 144.591C155.396 144.591 160.346 138.161 164.325 132.992L164.328 132.988C168.015 128.195 170.141 125.695 174.488 125.695C178.838 125.695 180.964 128.195 184.651 132.988L184.666 133.007C188.646 138.171 193.596 144.591 203.577 144.591C213.573 144.591 218.53 138.158 222.506 132.988C226.2 128.195 228.326 125.695 232.679 125.695C237.029 125.695 239.156 128.195 242.842 132.988L242.857 133.007C246.838 138.171 251.788 144.591 261.768 144.591C271.765 144.591 276.721 138.158 280.701 132.988C284.394 128.195 286.521 125.695 290.878 125.695C295.234 125.695 297.364 128.195 301.054 132.988L301.065 133.002ZM319.99 170.543C309.999 170.543 305.046 164.119 301.065 158.954L301.054 158.94C297.364 154.147 295.234 151.647 290.878 151.647C286.521 151.647 284.394 154.147 280.701 158.94C276.721 164.11 271.765 170.543 261.768 170.543C251.788 170.543 246.838 164.123 242.857 158.96L242.842 158.94C239.156 154.147 237.029 151.647 232.679 151.647C228.326 151.647 226.2 154.147 222.506 158.94C218.53 164.11 213.573 170.543 203.577 170.543C193.596 170.543 188.646 164.123 184.666 158.96L184.651 158.94C180.964 154.147 178.838 151.647 174.488 151.647C170.141 151.647 168.015 154.147 164.328 158.94L164.325 158.944C160.346 164.113 155.396 170.543 145.409 170.543C135.427 170.543 130.478 164.118 126.499 158.953L126.489 158.94C122.803 154.147 120.676 151.647 116.33 151.647C111.983 151.647 109.857 154.147 106.17 158.94C102.19 164.113 97.2403 170.547 87.2473 170.547C77.2584 170.547 72.3085 164.115 68.3328 158.95L68.3279 158.944C64.6413 154.15 62.5114 151.651 58.1649 151.651C53.815 151.651 51.6884 154.15 47.9985 158.944L47.9955 158.948C44.0161 164.117 39.0662 170.547 29.0758 170.547C19.091 170.547 14.1411 164.121 10.1629 158.956L10.153 158.944C6.47313 154.144 4.34653 151.644 0 151.644V140.588C9.98473 140.588 14.9347 147.013 18.9128 152.178L18.9227 152.191C22.6093 156.984 24.7392 159.484 29.0858 159.484C33.4356 159.484 35.5622 156.984 39.2488 152.191C43.2286 147.017 48.1818 140.584 58.1748 140.584C68.1628 140.584 73.1127 147.014 77.0915 152.183L77.0976 152.191C80.7841 156.984 82.9107 159.484 87.2573 159.484C91.6038 159.484 93.7304 156.984 97.417 152.191C101.397 147.017 106.347 140.584 116.34 140.584C126.328 140.584 131.278 147.014 135.256 152.183L135.262 152.191C138.949 156.984 141.076 159.484 145.419 159.484C149.762 159.484 151.889 156.984 155.575 152.191C159.555 147.017 164.505 140.584 174.498 140.584C184.478 140.584 189.428 147.005 193.409 152.168L193.424 152.187C197.111 156.98 199.237 159.48 203.587 159.48C207.94 159.48 210.067 156.98 213.76 152.187C217.737 147.017 222.693 140.584 232.689 140.584C242.67 140.584 247.62 147.005 251.601 152.168L251.615 152.187C255.302 156.98 257.429 159.48 261.779 159.48C266.135 159.48 268.262 156.98 271.955 152.187C275.935 147.017 280.891 140.584 290.888 140.584C300.875 140.584 305.828 147.009 309.81 152.173L309.82 152.187C313.51 156.98 315.643 159.48 320 159.48V170.543H319.99ZM301.065 184.915C305.046 190.079 309.999 196.504 319.99 196.504H320V185.444C315.643 185.444 313.51 182.944 309.82 178.151L309.809 178.137C305.828 172.973 300.875 166.548 290.888 166.548C280.891 166.548 275.935 172.981 271.955 178.151C268.262 182.944 266.135 185.444 261.779 185.444C257.429 185.444 255.302 182.944 251.615 178.151L251.601 178.132C247.62 172.968 242.67 166.548 232.689 166.548C222.693 166.548 217.737 172.981 213.76 178.151C210.067 182.944 207.94 185.444 203.587 185.444C199.237 185.444 197.111 182.944 193.424 178.151L193.409 178.132C189.428 172.968 184.478 166.548 174.498 166.548C164.505 166.548 159.555 172.981 155.575 178.154C151.889 182.947 149.762 185.447 145.419 185.447C141.076 185.447 138.949 182.947 135.262 178.154L135.256 178.146C131.278 172.978 126.328 166.548 116.34 166.548C106.347 166.548 101.397 172.981 97.417 178.154C93.7304 182.947 91.6038 185.447 87.2573 185.447C82.9107 185.447 80.7841 182.947 77.0976 178.154L77.0915 178.146L77.0914 178.146C73.1126 172.978 68.1627 166.548 58.1748 166.548C48.1818 166.548 43.2286 172.981 39.2488 178.154C35.5622 182.947 33.4356 185.447 29.0858 185.447C24.7392 185.447 22.6093 182.947 18.9227 178.154L18.9128 178.141C14.9347 172.977 9.98474 166.551 0 166.551V177.604C4.34653 177.604 6.47313 180.104 10.153 184.904L10.163 184.917C14.1412 190.081 19.0911 196.507 29.0758 196.507C39.0662 196.507 44.0161 190.077 47.9955 184.908L47.9985 184.904C51.6884 180.111 53.815 177.611 58.1649 177.611C62.5114 177.611 64.6413 180.111 68.3279 184.904L68.3329 184.91C72.3086 190.076 77.2585 196.507 87.2473 196.507C97.2403 196.507 102.19 190.074 106.17 184.901C109.857 180.107 111.983 177.607 116.33 177.607C120.676 177.607 122.803 180.107 126.489 184.901L126.499 184.914C130.478 190.078 135.427 196.504 145.409 196.504C155.396 196.504 160.346 190.074 164.325 184.905L164.325 184.905L164.328 184.901C168.015 180.107 170.141 177.607 174.488 177.607C178.838 177.607 180.964 180.107 184.651 184.901L184.666 184.92C188.646 190.083 193.596 196.504 203.577 196.504C213.573 196.504 218.53 190.07 222.506 184.901C226.2 180.107 228.326 177.607 232.679 177.607C237.029 177.607 239.156 180.107 242.842 184.901L242.857 184.92C246.838 190.083 251.788 196.504 261.768 196.504C271.765 196.504 276.721 190.07 280.701 184.901C284.394 180.107 286.521 177.607 290.878 177.607C295.234 177.607 297.364 180.107 301.054 184.901L301.065 184.915ZM319.99 222.453C309.999 222.453 305.046 216.028 301.065 210.864L301.054 210.85C297.364 206.056 295.234 203.557 290.878 203.557C286.521 203.557 284.394 206.056 280.701 210.85C276.721 216.02 271.765 222.453 261.768 222.453C251.788 222.453 246.838 216.032 242.857 210.869L242.842 210.85C239.156 206.056 237.029 203.557 232.679 203.557C228.326 203.557 226.2 206.056 222.506 210.85C218.53 216.02 213.573 222.453 203.577 222.453C193.596 222.453 188.646 216.032 184.666 210.869L184.651 210.85C180.964 206.056 178.838 203.557 174.488 203.557C170.141 203.557 168.015 206.056 164.328 210.85L164.325 210.854C160.346 216.023 155.396 222.453 145.409 222.453C135.427 222.453 130.477 216.027 126.499 210.863L126.489 210.85C122.803 206.056 120.676 203.557 116.33 203.557C111.983 203.557 109.857 206.056 106.17 210.85C102.19 216.023 97.2403 222.456 87.2473 222.456C77.2584 222.456 72.3086 216.025 68.3329 210.859L68.3279 210.853C64.6413 206.06 62.5114 203.56 58.1649 203.56C53.815 203.56 51.6884 206.06 47.9985 210.853L47.9954 210.857C44.0161 216.026 39.0662 222.456 29.0758 222.456C19.0911 222.456 14.1411 216.03 10.163 210.866L10.153 210.853C6.47313 206.053 4.34653 203.553 0 203.553V192.5C9.98471 192.5 14.9346 198.926 18.9128 204.09L18.9227 204.103C22.6093 208.896 24.7392 211.396 29.0858 211.396C33.4356 211.396 35.5622 208.896 39.2488 204.103C43.2286 198.93 48.1818 192.497 58.1748 192.497C68.1628 192.497 73.1127 198.927 77.0915 204.095L77.0976 204.103C80.7841 208.896 82.9107 211.396 87.2573 211.396C91.6038 211.396 93.7304 208.896 97.417 204.103C101.397 198.93 106.347 192.497 116.34 192.497C126.328 192.497 131.278 198.927 135.256 204.095L135.262 204.103C138.949 208.896 141.076 211.396 145.419 211.396C149.762 211.396 151.889 208.896 155.575 204.103C159.555 198.93 164.505 192.497 174.498 192.497C184.478 192.497 189.428 198.917 193.409 204.081L193.424 204.1C197.111 208.893 199.237 211.393 203.587 211.393C207.94 211.393 210.067 208.893 213.76 204.1C217.737 198.93 222.693 192.497 232.689 192.497C242.67 192.497 247.62 198.917 251.601 204.081L251.615 204.1C255.302 208.893 257.429 211.393 261.779 211.393C266.135 211.393 268.262 208.893 271.955 204.1C275.935 198.93 280.891 192.497 290.888 192.497C300.875 192.497 305.828 198.922 309.81 204.086L309.82 204.1C313.51 208.893 315.643 211.393 320 211.393V222.453H319.99ZM301.065 236.8C305.046 241.964 309.999 248.389 319.99 248.389H320V237.33C315.643 237.33 313.51 234.83 309.82 230.036L309.81 230.022C305.828 224.858 300.875 218.433 290.888 218.433C280.891 218.433 275.935 224.867 271.955 230.036C268.262 234.83 266.135 237.33 261.779 237.33C257.429 237.33 255.302 234.83 251.615 230.036L251.601 230.017C247.62 224.854 242.67 218.433 232.689 218.433C222.693 218.433 217.737 224.867 213.76 230.036C210.067 234.83 207.94 237.33 203.587 237.33C199.237 237.33 197.111 234.83 193.424 230.036L193.409 230.017C189.428 224.854 184.478 218.433 174.498 218.433C164.505 218.433 159.555 224.867 155.575 230.04C151.889 234.833 149.762 237.333 145.419 237.333C141.076 237.333 138.949 234.833 135.262 230.04L135.256 230.032C131.278 224.863 126.328 218.433 116.34 218.433C106.347 218.433 101.397 224.867 97.417 230.04C93.7304 234.833 91.6038 237.333 87.2573 237.333C82.9107 237.333 80.7841 234.833 77.0976 230.04L77.0915 230.032C73.1127 224.863 68.1628 218.433 58.1748 218.433C48.1818 218.433 43.2286 224.867 39.2488 230.04C35.5622 234.833 33.4356 237.333 29.0858 237.333C24.7392 237.333 22.6093 234.833 18.9227 230.04L18.9128 230.027C14.9347 224.863 9.98473 218.437 0 218.437V229.49C4.34653 229.49 6.47313 231.99 10.153 236.79L10.1629 236.802C14.1411 241.967 19.091 248.393 29.0758 248.393C39.0662 248.393 44.0161 241.963 47.9954 236.794L47.9985 236.79C51.6884 231.996 53.815 229.496 58.1649 229.496C62.5114 229.496 64.6413 231.996 68.3279 236.79L68.3328 236.796C72.3085 241.961 77.2584 248.393 87.2473 248.393C97.2403 248.393 102.19 241.959 106.17 236.786C109.857 231.993 111.983 229.493 116.33 229.493C120.676 229.493 122.803 231.993 126.489 236.786L126.499 236.799C130.477 241.963 135.427 248.389 145.409 248.389C155.396 248.389 160.346 241.959 164.325 236.79L164.328 236.786C168.015 231.993 170.141 229.493 174.488 229.493C178.838 229.493 180.964 231.993 184.651 236.786L184.666 236.805C188.646 241.969 193.596 248.389 203.577 248.389C213.573 248.389 218.53 241.956 222.506 236.786C226.2 231.993 228.326 229.493 232.679 229.493C237.029 229.493 239.156 231.993 242.842 236.786L242.857 236.805C246.838 241.969 251.788 248.389 261.768 248.389C271.765 248.389 276.721 241.956 280.701 236.786C284.394 231.993 286.521 229.493 290.878 229.493C295.234 229.493 297.364 231.993 301.054 236.786L301.065 236.8Z" fill="#D72F2F"/>
</g>
</svg>
